<svg width="400" height="400" viewBox="0 0 400 400" xmlns="http://www.w3.org/2000/svg">
  <defs>
    <!-- Bronze gradient -->
    <linearGradient id="bronzeGradient" x1="0%" y1="0%" x2="100%" y2="100%">
      <stop offset="0%" style="stop-color:#CD7F32;stop-opacity:1" />
      <stop offset="50%" style="stop-color:#B8860B;stop-opacity:1" />
      <stop offset="100%" style="stop-color:#8B4513;stop-opacity:1" />
    </linearGradient>
    
    <!-- Background gradient -->
    <radialGradient id="bgGradient" cx="50%" cy="50%" r="50%">
      <stop offset="0%" style="stop-color:#1a1a2e;stop-opacity:1" />
      <stop offset="100%" style="stop-color:#16213e;stop-opacity:1" />
    </radialGradient>
    
    <!-- Glow effect -->
    <filter id="glow">
      <feGaussianBlur stdDeviation="3" result="coloredBlur"/>
      <feMerge> 
        <feMergeNode in="coloredBlur"/>
        <feMergeNode in="SourceGraphic"/>
      </feMerge>
    </filter>
  </defs>
  
  <!-- Background -->
  <rect width="400" height="400" fill="url(#bgGradient)" rx="20"/>
  
  <!-- Outer ring -->
  <circle cx="200" cy="200" r="180" fill="none" stroke="url(#bronzeGradient)" stroke-width="8" opacity="0.3"/>
  <circle cx="200" cy="200" r="160" fill="none" stroke="url(#bronzeGradient)" stroke-width="4" opacity="0.5"/>
  
  <!-- Main badge circle -->
  <circle cx="200" cy="200" r="140" fill="url(#bronzeGradient)" filter="url(#glow)"/>
  
  <!-- Inner circle -->
  <circle cx="200" cy="200" r="120" fill="none" stroke="#FFD700" stroke-width="2" opacity="0.8"/>
  
  <!-- ZK logo area -->
  <circle cx="200" cy="200" r="100" fill="#0D1117" opacity="0.9"/>
  
  <!-- ZK symbol (Zero-Knowledge proof visualization) -->
  <g transform="translate(200, 200)">
    <!-- Main ZK symbol -->
    <g fill="none" stroke="#00D4AA" stroke-width="4" filter="url(#glow)">
      <!-- Z shape -->
      <path d="M-30,-25 L30,-25 M30,-25 L-30,25 M-30,25 L30,25"/>
      <!-- K shape -->
      <path d="M-30,-25 L-30,25 M-30,0 L30,-25 M-30,0 L30,25"/>
    </g>
    
    <!-- Cryptographic elements -->
    <g opacity="0.6">
      <!-- Lock symbol -->
      <rect x="-15" y="-5" width="10" height="8" fill="#00D4AA" opacity="0.7"/>
      <path d="M-10,-5 Q-10,-10 -5,-10 Q0,-10 0,-5" fill="none" stroke="#00D4AA" stroke-width="2"/>
      
      <!-- Key symbol -->
      <circle cx="15" cy="0" r="3" fill="#00D4AA" opacity="0.7"/>
      <rect x="18" y="-1" width="8" height="2" fill="#00D4AA" opacity="0.7"/>
      <rect x="24" y="-2" width="2" height="4" fill="#00D4AA" opacity="0.7"/>
    </g>
    
    <!-- ZK text -->
    <text x="0" y="45" text-anchor="middle" fill="#00D4AA" font-family="Arial, sans-serif" font-size="12" font-weight="bold">ZK</text>
  </g>
  
  <!-- Decorative elements -->
  <g opacity="0.6">
    <!-- Top decoration -->
    <circle cx="200" cy="60" r="8" fill="url(#bronzeGradient)"/>
    <circle cx="200" cy="60" r="4" fill="#FFD700"/>
    
    <!-- Bottom decoration -->
    <circle cx="200" cy="340" r="8" fill="url(#bronzeGradient)"/>
    <circle cx="200" cy="340" r="4" fill="#FFD700"/>
    
    <!-- Side decorations -->
    <circle cx="60" cy="200" r="6" fill="url(#bronzeGradient)"/>
    <circle cx="340" cy="200" r="6" fill="url(#bronzeGradient)"/>
  </g>
  
  <!-- Bronze text -->
  <text x="200" y="320" text-anchor="middle" fill="url(#bronzeGradient)" font-family="Arial, sans-serif" font-size="16" font-weight="bold">BRONZE</text>
  <text x="200" y="340" text-anchor="middle" fill="#FFD700" font-family="Arial, sans-serif" font-size="12">SCHOLAR</text>
  
  <!-- Points requirement -->
  <text x="200" y="360" text-anchor="middle" fill="#888" font-family="Arial, sans-serif" font-size="10">3000 POINTS</text>
</svg>

