<svg width="120" height="40" viewBox="0 0 120 40" fill="none" xmlns="http://www.w3.org/2000/svg">
  <!-- Quiz3 logo inspired by the uploaded image -->
  
  <!-- Question mark icon background -->
  <rect x="2" y="2" width="36" height="36" rx="12" fill="url(#quiz3Gradient)" />
  
  <!-- Question mark -->
  <path d="M20 12c-2.2 0-4 1.8-4 4h2c0-1.1.9-2 2-2s2 .9 2 2c0 1-0.5 1.5-1.5 2.5S18.5 20.5 18.5 22h2c0-.5.5-1 1.5-2s2-1.5 2-3c0-2.2-1.8-4-4-4z" fill="white"/>
  <circle cx="20" cy="26" r="1.5" fill="white"/>
  
  <!-- Quiz text -->
  <text x="44" y="16" font-family="system-ui, -apple-system, sans-serif" font-size="18" font-weight="bold" fill="url(#textGradient)">Quiz</text>
  
  <!-- 3 -->
  <text x="95" y="32" font-family="system-ui, -apple-system, sans-serif" font-size="24" font-weight="bold" fill="#e91e63">3</text>
  
  <defs>
    <linearGradient id="quiz3Gradient" x1="0%" y1="0%" x2="100%" y2="100%">
      <stop offset="0%" stop-color="#00bcd4"/>
      <stop offset="50%" stop-color="#2196f3"/>
      <stop offset="100%" stop-color="#6366f1"/>
    </linearGradient>
    <linearGradient id="textGradient" x1="0%" y1="0%" x2="100%" y2="0%">
      <stop offset="0%" stop-color="#00bcd4"/>
      <stop offset="50%" stop-color="#2196f3"/>
      <stop offset="100%" stop-color="#6366f1"/>
    </linearGradient>
  </defs>
</svg>
